<svg width="20" height="20" viewBox="0 0 20 20" fill="none" xmlns="http://www.w3.org/2000/svg">
<path d="M1.66699 15.8334C1.66699 17.25 2.75033 18.3334 4.16699 18.3334H15.8337C17.2503 18.3334 18.3337 17.25 18.3337 15.8334V9.16669H1.66699V15.8334ZM15.8337 3.33335H14.167V2.50002C14.167 2.00002 13.8337 1.66669 13.3337 1.66669C12.8337 1.66669 12.5003 2.00002 12.5003 2.50002V3.33335H7.50033V2.50002C7.50033 2.00002 7.16699 1.66669 6.66699 1.66669C6.16699 1.66669 5.83366 2.00002 5.83366 2.50002V3.33335H4.16699C2.75033 3.33335 1.66699 4.41669 1.66699 5.83335V7.50002H18.3337V5.83335C18.3337 4.41669 17.2503 3.33335 15.8337 3.33335Z" fill="#9F9F9F"/>
</svg>
