<svg width="24" height="24" viewBox="0 0 24 24" fill="none" xmlns="http://www.w3.org/2000/svg">
<path d="M12.8966 21.968C12.3666 21.97 11.8566 21.758 11.4826 21.382L3.64564 13.547C3.44131 13.3434 3.28363 13.0978 3.18349 12.8272C3.08335 12.5567 3.04314 12.2676 3.06564 11.98L3.56564 5.41401C3.60018 4.93599 3.80617 4.48652 4.1457 4.14827C4.48524 3.81002 4.93549 3.60574 5.41364 3.57301L11.9796 3.07301C12.0316 3.06201 12.0826 3.06201 12.1346 3.06201C12.6646 3.06201 13.1716 3.27201 13.5446 3.64801L21.3826 11.482C21.5684 11.6677 21.7158 11.8883 21.8164 12.131C21.917 12.3737 21.9687 12.6338 21.9687 12.8965C21.9687 13.1592 21.917 13.4194 21.8164 13.6621C21.7158 13.9048 21.5684 14.1253 21.3826 14.311L14.3106 21.382C14.1254 21.5683 13.905 21.716 13.6623 21.8166C13.4196 21.9172 13.1594 21.9687 12.8966 21.968ZM8.65364 6.65401C8.32475 6.65411 8.00096 6.73531 7.71094 6.89042C7.42093 7.04554 7.17364 7.26978 6.99099 7.54329C6.80834 7.8168 6.69596 8.13113 6.6638 8.45845C6.63164 8.78576 6.68069 9.11595 6.80662 9.41978C6.93255 9.72361 7.13146 9.99169 7.38574 10.2003C7.64002 10.4089 7.94181 10.5516 8.26439 10.6157C8.58698 10.6798 8.92039 10.6633 9.2351 10.5678C9.54982 10.4723 9.83611 10.3006 10.0686 10.068L10.0756 10.062L10.0826 10.055L10.0746 10.062C10.3526 9.78158 10.5414 9.42513 10.6171 9.03759C10.6928 8.65006 10.6522 8.24877 10.5002 7.88432C10.3482 7.51986 10.0918 7.20855 9.76318 6.98961C9.43457 6.77066 9.04851 6.65389 8.65364 6.65401Z" fill="#9F9F9F"/>
</svg>
